<svg xmlns="http://www.w3.org/2000/svg" viewBox="18.7 171.1 464.6 120.8">
  <defs>
    <clipPath id="a" clipPathUnits="userSpaceOnUse">
      <path d="M0 567h567V0H0Z"/>
    </clipPath>
  </defs>
  <g clip-path="url(#a)" transform="matrix(1.1 0 0 -1.1 -62.4 521.4)">
    <path fill="#2b93dd" d="M136.9 258.9a3.2 3.2 0 1 0 0 6.4 3.2 3.2 0 0 0 0-6.4m-4.1 43.4a3.2 3.2 0 1 0 1-6.4 3.2 3.2 0 0 0-1 6.4m-18.2-23.6a3.2 3.2 0 1 0-6.4 0 3.2 3.2 0 0 0 6.4 0m65.4 6a25.7 25.7 0 0 1-21 11.5c-20 .6-31.7-19.6-44.6-31.5-4.7-4.3-10.5-8.9-17-9.4A16.8 16.8 0 0 0 82 263c-4.8 8.2-.2 19 9.3 20.4 5 .8 9.3-1 13.2-3.6a7 7 0 1 1 4 5.3c-9.2 5.7-9.3 20.3 1 25.6 7.6 3.8 15.7.3 19.3-6.2a7 7 0 1 1 6.6 1.3 21.3 21.3 0 0 1-29.7 10 21.2 21.2 0 0 1-9-26c-7.7.9-15.4-2-19.8-8.5-5-7.6-4-17.7 1.8-24.6 4.1-4.9 11-7.8 17.4-7.8 16.6-.1 27.3 16.7 37.7 27 6.2 6.3 14 13.5 23.3 14 8.1.3 16.4-4 19.1-12a18 18 0 0 0-8.9-21.5c-8.3-4-16.4 0-23.5 4.7a7 7 0 0 1-7 8 7 7 0 1 1 3.4-13.2c6.3-4.2 13-7.9 20.8-7.5a23.8 23.8 0 0 1 19 36.2"/>
    <path fill="#0a2435" d="M244.2 253a1 1 0 0 0-1 1v18.6c0 2-.2 3.5-.4 4.6-.2 1-.6 1.8-1 2.2-.5.4-1.3.6-2.4.6-1.3 0-2.6-.5-4-1.4-1.3-.9-2.5-2-3.6-3.1a1 1 0 0 1-.3-.8v-20.6c0-.6-.4-1-1-1h-6a1 1 0 0 0-1.1 1v18.5c0 2.1-.1 3.7-.3 4.6-.2 1-.5 1.7-1 2.1-.5.5-1.3.7-2.5.7a7 7 0 0 1-3.5-1.2c-1.2-.7-2.6-1.8-4-3.3a1 1 0 0 1-.3-.8v-20.6c0-.6-.5-1-1-1h-6.1a1 1 0 0 0-1 1v31c0 .6.4 1.1 1 1.1h6c.6 0 1-.5 1-1v-.8c0-.9 1.2-1.4 1.8-.8a11.8 11.8 0 0 0 8.6 3.5c2.7 0 4.8-.4 6.1-1.4 1-.7 1.7-1.6 2.2-2.7a1 1 0 0 1 1.7-.4c1.4 1.4 2.8 2.4 4.1 3.2a12 12 0 0 0 5.8 1.3c3.3 0 5.6-.9 7.1-2.7 1.5-1.8 2.2-5 2.2-9.2V254c0-.6-.5-1-1-1Zm35.6 20.1a1 1 0 0 1 1 1.2c-.2 4.2-2.4 6.4-6.5 6.4-1.5 0-2.6-.3-3.6-.8a5.8 5.8 0 0 1-2.2-2.2c-.4-.8-.8-1.9-1-3.3a1 1 0 0 1 1-1.3Zm-11.7-5.6a1 1 0 0 1-1-1.2c.2-2.3 1-4 2-5.2 1.3-1.3 3.3-2 6-2 1.7 0 3.1.3 4.3.7a6 6 0 0 1 2.6 1.6c.4.4 1 .4 1.4.1l4.4-3c.5-.5.6-1.2.2-1.7a12.2 12.2 0 0 0-4.5-3.3c-2.1-1-5-1.5-8.7-1.5-5.5 0-9.5 1.5-12.2 4.3-2.7 3-4 7.2-4 13 0 12 5.3 17.8 15.9 17.8 4.7 0 8.3-1.3 10.8-4 2.5-2.6 3.7-6.5 3.7-11.6v-3c0-.5-.5-1-1-1zm93.3-9.1c.5-.4.6-1 .2-1.6a12.1 12.1 0 0 0-4.3-3.3c-2-1-4.7-1.5-7.8-1.5-5.4 0-9.5 1.5-12.2 4.4-2.7 3-4.1 7.3-4.1 13 0 5.6 1.3 10 4 13 2.6 3.2 6.6 4.7 12 4.7 2.8 0 5.3-.4 7.5-1.3 1.9-.8 3.4-2 4.5-3.4a1 1 0 0 0-.2-1.5l-4.5-3.2a1 1 0 0 0-1.4.1c-.6.7-1.2 1.2-2 1.5-1 .5-2.2.7-3.8.7-2.8 0-4.7-.8-6-2.5a14.1 14.1 0 0 1-1.7-8c0-3.6.6-6.2 1.8-7.8 1.2-1.7 3.3-2.5 6.2-2.5 1.3 0 2.5.2 3.5.5a6 6 0 0 1 2.4 1.7c.4.4 1 .4 1.4.1zm46 11.1c0 3.7-.5 6.3-1.7 8-1.1 1.7-3 2.5-5.7 2.5s-4.6-.8-5.8-2.5a14.1 14.1 0 0 1-1.7-8c0-3.5.5-6.1 1.7-7.8 1.2-1.7 3.1-2.5 5.8-2.5 2.6 0 4.5.8 5.7 2.5a14 14 0 0 1 1.7 7.8m8.5 0c0-5.5-1.3-9.8-3.9-12.9-2.5-3-6.5-4.6-12-4.6-10.6 0-16 5.9-16 17.5 0 5.6 1.3 10 3.9 13 2.5 3.1 6.6 4.6 12 4.6 5.6 0 9.6-1.5 12.1-4.6 2.6-3 3.9-7.4 3.9-13m28.6-15.5v.9a1 1 0 0 1-1.7.8 18 18 0 0 0-3.6-2.2c-2-1-4-1.5-6-1.5-3.7 0-6.3 1-7.8 3.2a15 15 0 0 0-2.3 8.8v21.1c0 .6.5 1.1 1 1.1h6.1c.6 0 1-.5 1-1v-17.3c0-2.3.2-4.1.5-5.4.3-1.2.7-2 1.3-2.5.6-.5 1.6-.7 2.8-.7 2.3 0 5.1 1.4 8.3 4.4.3.2.4.5.4.8v20.6c0 .6.5 1.1 1 1.1h6c.7 0 1.2-.5 1.2-1V254c0-.6-.5-1-1.1-1h-6a1 1 0 0 0-1.1 1M369 298.8h6.5c.3 0 .6-.3.6-.6V262c.1-3 1.5-5.3 4.2-6.8.4-.2.4-.7.1-1l-4-4.2a.7.7 0 0 0-.7-.2c-4.6 1.5-7.4 6.4-7.4 11.4v37c0 .3.3.6.7.6M317.5 263a1 1 0 0 0-.4-.8c-.9-.8-2-1.5-3.2-2-1.4-.6-2.8-1-4.1-1-2.3 0-4 1-5 2.8-1.1 1.8-1.7 4.3-1.7 7.5s.7 5.8 2 7.7a6.3 6.3 0 0 0 5.3 2.8 9 9 0 0 0 3.9-1c1-.4 2-1 2.8-1.7.3-.2.4-.5.4-.8Zm11.9-6.4c-2 1.2-3.3 3-3.7 5.2V299c0 .6-.5 1-1.1 1h-6a1 1 0 0 1-1.1-1v-13.2a1 1 0 0 0-1.6-1 14.7 14.7 0 0 1-7.3 2.3c-4.4 0-7.8-1.6-10.2-4.7a20.9 20.9 0 0 1-3.7-13.1c0-5.5 1.1-9.8 3.3-12.8 2.2-3 5.4-4.5 9.6-4.5 2.2 0 4 .3 5.8 1l3.1 1.9c.7.5 2.1 1.5 3.3.2 1.3-1.9 3-3.4 5.1-4.1.3-.1.7 0 1 .2l3.7 3.9c.4.4.3 1-.2 1.4m151.5 6.5a1 1 0 0 0-.4-.8c-.9-.7-2-1.4-3.2-2-1.4-.6-2.8-.9-4.1-.9-2.3 0-4 1-5 2.7a13.9 13.9 0 0 0-1.7 7.5c0 3.3.7 5.8 2 7.7a6 6 0 0 0 5.3 2.8 9 9 0 0 0 3.9-.9c1-.5 2-1 2.8-1.7.3-.2.4-.5.4-.8Zm11.9-6.4c-2 1.3-3.3 3-3.7 5.2v37.3c0 .6-.5 1-1.1 1h-6a1 1 0 0 1-1.1-1V286a1 1 0 0 0-1.6-.8 14.7 14.7 0 0 1-7.3 2.1c-4.4 0-7.8-1.5-10.3-4.7a20.9 20.9 0 0 1-3.6-13c0-5.6 1.1-9.8 3.3-12.9 2.2-3 5.4-4.5 9.6-4.5 2.1 0 4 .4 5.8 1.2 1 .4 2 1 3.1 1.7.7.5 2.1 1.6 3.3.3 1.2-2 3-3.4 5.1-4.2.3 0 .7 0 1 .3l3.7 3.8c.4.4.3 1.1-.2 1.4"/>
  </g>
  <path fill="#002639" d="M294.8 278.5q-1.7 1.6-3.8 2.4-2.1.8-4.6.8-2.7 0-5-1t-4-2.9q-1.7-1.9-2.6-4.8-1-3-1-6.7 0-3.8 1-6.7 1-3 2.6-4.9 1.7-1.9 4-2.9t5-1q2.5 0 4.6.8 2.1.8 3.8 2.5l-3.4 3q-1-1.2-2.3-1.7-1.2-.5-2.6-.5-1.5 0-2.9.5-1.3.6-2.4 2-1.1 1.4-1.7 3.5-.6 2.2-.7 5.4 0 3 .6 5.2t1.7 3.6q1 1.3 2.4 2 1.3.6 2.8.6 1.5 0 2.7-.5 1.3-.6 2.4-1.7Zm26 3h-5V269q0-1.4-.2-2.6-.1-1.3-.5-2.3-.5-1-1.3-1.5-.8-.6-2.2-.6l-1.1.1-1.5.4-1.4.6q-.7.4-1 .9v17.6h-5v-31.8h5v11l1.2-.9q.8-.5 1.7-.8l1.8-.6q1-.3 1.9-.3 1.8 0 3 .8 1.4.8 2.6 2 .7.7 1.1 1.7.4.9.6 1.9l.2 2v14.2Zm22.5-7.1v1.3l.3 1.2q0 .7.3 1.2.3.6.8.7l-1.4 2.8q-.5 0-1-.3-.7-.2-1.2-.7-.6-.4-1-1-.4-.5-.6-1.2-.3.7-1 1.3-.7.6-1.6 1-.9.5-2 .8l-1.9.2q-1.4 0-2.7-.3-1.3-.4-2.3-1.2-1-.8-1.5-2.2-.5-1.4-.5-3.3 0-2 .8-3.3.8-1.4 2-2.2 1.3-1 2.9-1.4 1.6-.4 3.2-.4h3.5q0-2-.2-3.2-.2-1.2-.7-1.7-.5-.6-1.2-.7-.7-.2-1.7-.2t-1.7.3l-1.5.5-1.2.7-.8.5-1.8-2.8 1.2-1q.8-.4 2-.7 1-.4 2.2-.6 1.3-.3 2.6-.3t2.4.3q1.2.2 2.2.8 1 .6 1.6 1.5.8 1 1 2.4l.4 3 .1 2.8Zm-4.9-4h-2.6l-1.7.1q-1 .2-1.7.6-.8.5-1.3 1.3t-.5 2.2q0 2 1 3 .8.8 2.6.8 1.2 0 2.4-.6 1-.7 1.8-1.8Zm17.7 4.1q0 1.4.4 2.2.3.8 1 1.2l1.5.5h1.8v3.1l-1 .2h-3.7l-1.1-.1q-1.4-.3-2.2-1.3-.8-1-1.2-2-.4-1.2-.5-2.4l-.1-1.7v-24.5h5Zm14.9 0q0 1.4.3 2.2.4.8 1 1.2l1.6.5h1.8v3.1l-1.1.2H371l-1.1-.1q-1.4-.3-2.2-1.3-.8-1-1.2-2-.4-1.2-.5-2.4l-.1-1.7v-24.5h5Zm26.7-.1v1.3l.2 1.2.4 1.2q.3.6.7.7l-1.3 2.8q-.5 0-1.1-.3-.6-.2-1.2-.7-.5-.4-.9-1-.4-.5-.6-1.2-.3.7-1 1.3-.7.6-1.6 1l-2 .8-2 .2q-1.3 0-2.6-.3-1.3-.4-2.3-1.2-1-.8-1.5-2.2-.6-1.4-.6-3.3 0-2 .8-3.3.8-1.4 2-2.2 1.3-1 3-1.4 1.5-.4 3.2-.4h3.5q0-2-.2-3.2-.2-1.2-.7-1.7-.5-.6-1.2-.7-.8-.2-1.8-.2-.9 0-1.7.3l-1.4.5-1.2.7-.8.5-1.8-2.8 1.2-1 1.9-.7q1-.4 2.3-.6 1.3-.3 2.6-.3 1.2 0 2.4.3 1.2.2 2.1.8 1 .6 1.7 1.5.7 1 1 2.4l.4 3 .1 2.8Zm-4.9-4h-2.6l-1.7.1q-1 .2-1.7.6-.8.5-1.3 1.3t-.5 2.2q0 2 .9 3 1 .8 2.7.8 1.2 0 2.3-.6 1.2-.7 1.9-1.8Zm31.9 11.1h-5V269l-.1-2.6q-.1-1.3-.6-2.3-.5-1-1.2-1.5-.8-.6-2.2-.6l-1.2.1-1.4.4-1.5.6q-.7.4-1 .9v17.6h-5v-23.1h4.5l.5 2.3 1.3-.9q.7-.5 1.6-.8l1.9-.6q1-.3 1.8-.3 1.9 0 3.1.8 1.3.8 2.6 2 .7.7 1 1.7.4.9.6 1.9l.3 2v14.2Zm11.6 3q.4.7 1 1.2l1.3.7 1.4.3 1.2.1q2.5 0 4-1.5 1.4-1.4 1.4-5v-1.5q-.1.5-.7 1-.6.6-1.5 1l-2 .7-2.4.2q-2.3 0-4-1-1.8-1-3-2.7-1-1.6-1.6-3.8-.5-2.2-.5-4.6 0-3.2.8-5.3 1-2.2 2.3-3.6 1.4-1.4 3-2 1.8-.5 3.4-.5 2 0 3.7.7 1.6.7 2.5 1.8l.5-2.3h4.5v23.1q-.2 2.5-1 4.3-1 1.8-2.2 3-1.3 1-3 1.5-1.8.5-3.8.5-2.3 0-4.5-.8t-3.7-2.6Zm10.6-14.7q0-1.6-.4-3t-1-2.5q-.8-1-1.8-1.7-1-.6-2.2-.6-1.3 0-2.3.6-1 .7-1.7 1.7-.7 1.1-1 2.5-.4 1.5-.4 3 0 1.7.4 3.2.4 1.4 1.1 2.5.7 1 1.7 1.7 1 .6 2.3.6 1.2 0 2.2-.6 1-.6 1.7-1.7t1-2.6q.4-1.5.4-3.1Zm22.3-11.7q2.8 0 5 1.2 2 1.1 3.5 3 1.3 1.8 2 4.3.5 2.4.2 5h-16.1q0 1.4.5 2.5.5 1 1.3 1.9.8.8 2 1.2 1.2.5 2.5.5l1.2-.1 1.4-.4 1.5-.7q.8-.4 1.3-1l1.9 2.8q-1.4 1.7-3.2 2.5-1.8.9-4.6.9-2.3 0-4.2-1-2-.9-3.4-2.5t-2.2-3.7q-.8-2.1-.8-4.6 0-2.4.8-4.6.8-2.1 2.2-3.7 1.4-1.6 3.3-2.5 1.8-1 4-1Zm6 10q0-1.2-.3-2.2-.5-1.1-1.2-2-.7-.8-1.7-1.3-1-.6-2.2-.6-1.3 0-2.4.5-1 .5-1.8 1.3t-1.2 2q-.5 1-.5 2.2Z" paint-order="fill" style="white-space:pre"/>
</svg>
